<svg width="32" height="32" viewBox="0 0 32 32" fill="none" xmlns="http://www.w3.org/2000/svg">
<rect width="31.75" height="31.75" rx="10" fill="#CCFF00"/>
<path d="M19.8351 11.167C19.9069 11.084 19.9927 11.018 20.0874 10.973C20.182 10.928 20.2837 10.9048 20.3864 10.9048C20.4891 10.9048 20.5907 10.928 20.6854 10.973C20.78 11.018 20.8658 11.084 20.9377 11.167C21.2389 11.5114 21.2431 12.0679 20.9482 12.4183L14.7209 20.7487C14.6502 20.8365 14.5644 20.9071 14.4688 20.9562C14.3731 21.0052 14.2697 21.0317 14.1647 21.0339C14.0597 21.0361 13.9554 21.0141 13.8582 20.9691C13.761 20.9242 13.6729 20.8573 13.5993 20.7725L9.81008 16.4274C9.66394 16.2587 9.58208 16.0319 9.58208 15.7957C9.58208 15.5595 9.66394 15.3327 9.81008 15.1641C9.88195 15.0811 9.96773 15.0152 10.0624 14.9702C10.1571 14.9252 10.2587 14.902 10.3614 14.902C10.4641 14.902 10.5657 14.9252 10.6604 14.9702C10.7551 15.0152 10.8409 15.0811 10.9127 15.1641L14.127 18.8502L19.814 11.1932C19.8205 11.184 19.8276 11.1752 19.8351 11.167Z" fill="#222222"/>
</svg>
