<svg width="46" height="46" viewBox="0 0 46 46" fill="none" xmlns="http://www.w3.org/2000/svg">
<path d="M23 0C29.1 0 34.9501 2.42321 39.2635 6.73654C43.5768 11.0499 46 16.9 46 23C46 29.1 43.5768 34.9501 39.2635 39.2635C34.9501 43.5768 29.1 46 23 46C16.9 46 11.0499 43.5768 6.73654 39.2635C2.42321 34.9501 0 29.1 0 23C0 16.9 2.42321 11.0499 6.73654 6.73654C11.0499 2.42321 16.9 0 23 0V0ZM12.9375 21.5625C12.5563 21.5625 12.1906 21.714 11.921 21.9835C11.6515 22.2531 11.5 22.6188 11.5 23C11.5 23.3812 11.6515 23.7469 11.921 24.0165C12.1906 24.2861 12.5563 24.4375 12.9375 24.4375H29.5924L23.4197 30.6072C23.2861 30.7409 23.1801 30.8996 23.1077 31.0742C23.0354 31.2488 22.9982 31.436 22.9982 31.625C22.9982 31.814 23.0354 32.0012 23.1077 32.1758C23.1801 32.3504 23.2861 32.5091 23.4197 32.6428C23.5534 32.7764 23.7121 32.8824 23.8867 32.9548C24.0613 33.0271 24.2485 33.0643 24.4375 33.0643C24.6265 33.0643 24.8137 33.0271 24.9883 32.9548C25.1629 32.8824 25.3216 32.7764 25.4553 32.6428L34.0803 24.0178C34.2141 23.8842 34.3203 23.7256 34.3928 23.5509C34.4653 23.3763 34.5026 23.1891 34.5026 23C34.5026 22.8109 34.4653 22.6237 34.3928 22.4491C34.3203 22.2744 34.2141 22.1158 34.0803 21.9822L25.4553 13.3572C25.3216 13.2236 25.1629 13.1176 24.9883 13.0452C24.8137 12.9729 24.6265 12.9357 24.4375 12.9357C24.2485 12.9357 24.0613 12.9729 23.8867 13.0452C23.7121 13.1176 23.5534 13.2236 23.4197 13.3572C23.2861 13.4909 23.1801 13.6496 23.1077 13.8242C23.0354 13.9988 22.9982 14.186 22.9982 14.375C22.9982 14.564 23.0354 14.7512 23.1077 14.9258C23.1801 15.1004 23.2861 15.2591 23.4197 15.3928L29.5924 21.5625H12.9375Z" fill="#42443C"/>
</svg>
