<svg width="46" height="46" viewBox="0 0 46 46" fill="none" xmlns="http://www.w3.org/2000/svg">
<path d="M23 46C16.9 46 11.0499 43.5768 6.73654 39.2635C2.42321 34.9501 1.47745e-06 29.1 2.01072e-06 23C2.544e-06 16.9 2.42321 11.0499 6.73655 6.73654C11.0499 2.4232 16.9 -2.544e-06 23 -2.01072e-06C29.1 -1.47745e-06 34.9501 2.42321 39.2635 6.73654C43.5768 11.0499 46 16.9 46 23C46 29.1 43.5768 34.9501 39.2635 39.2635C34.9501 43.5768 29.1 46 23 46V46ZM33.0625 24.4375C33.4438 24.4375 33.8094 24.286 34.079 24.0165C34.3486 23.7469 34.5 23.3812 34.5 23C34.5 22.6188 34.3486 22.2531 34.079 21.9835C33.8094 21.7139 33.4438 21.5625 33.0625 21.5625L16.4076 21.5625L22.5803 15.3927C22.7139 15.2591 22.8199 15.1004 22.8923 14.9258C22.9646 14.7512 23.0018 14.564 23.0018 14.375C23.0018 14.186 22.9646 13.9988 22.8923 13.8242C22.8199 13.6496 22.7139 13.4909 22.5803 13.3572C22.4466 13.2236 22.2879 13.1176 22.1133 13.0452C21.9387 12.9729 21.7515 12.9357 21.5625 12.9357C21.3735 12.9357 21.1863 12.9729 21.0117 13.0452C20.8371 13.1176 20.6784 13.2236 20.5448 13.3572L11.9198 21.9822C11.7859 22.1158 11.6797 22.2744 11.6072 22.4491C11.5347 22.6237 11.4974 22.8109 11.4974 23C11.4974 23.1891 11.5347 23.3763 11.6072 23.5509C11.6797 23.7256 11.7859 23.8842 11.9198 24.0177L20.5448 32.6427C20.6784 32.7764 20.8371 32.8824 21.0117 32.9548C21.1863 33.0271 21.3735 33.0643 21.5625 33.0643C21.7515 33.0643 21.9387 33.0271 22.1133 32.9548C22.2879 32.8824 22.4466 32.7764 22.5803 32.6427C22.7139 32.5091 22.8199 32.3504 22.8923 32.1758C22.9646 32.0012 23.0018 31.814 23.0018 31.625C23.0018 31.436 22.9646 31.2488 22.8923 31.0742C22.8199 30.8996 22.7139 30.7409 22.5803 30.6072L16.4076 24.4375L33.0625 24.4375Z" fill="#42443C"/>
</svg>
