<svg width="20" height="20" viewBox="0 0 20 20" fill="none" xmlns="http://www.w3.org/2000/svg">
<path d="M10.0001 15C14.6026 15 18.3334 10 18.3334 10C18.3334 10 14.6026 5 10.0001 5C5.39758 5 1.66675 10 1.66675 10C1.66675 10 5.39758 15 10.0001 15Z" stroke="#222222" stroke-width="2" stroke-linejoin="round"/>
<path d="M10.0001 12.0833C10.5526 12.0833 11.0825 11.8638 11.4732 11.4731C11.8639 11.0824 12.0834 10.5525 12.0834 9.99996C12.0834 9.44742 11.8639 8.91752 11.4732 8.52682C11.0825 8.13612 10.5526 7.91663 10.0001 7.91663C9.44755 7.91663 8.91764 8.13612 8.52694 8.52682C8.13624 8.91752 7.91675 9.44742 7.91675 9.99996C7.91675 10.5525 8.13624 11.0824 8.52694 11.4731C8.91764 11.8638 9.44755 12.0833 10.0001 12.0833Z" stroke="#222222" stroke-width="2" stroke-linejoin="round"/>
</svg>
